<?xml version="1.0" standalone="no"?>
<!DOCTYPE svg PUBLIC "-//W3C//DTD SVG 20010904//EN"
 "http://www.w3.org/TR/2001/REC-SVG-20010904/DTD/svg10.dtd">
<svg version="1.0" xmlns="http://www.w3.org/2000/svg"
 width="700.000000pt" height="700.000000pt" viewBox="0 0 700.000000 700.000000"
 preserveAspectRatio="xMidYMid meet">
<metadata>
Created by potrace 1.11, written by Peter Selinger 2001-2013
</metadata>
<g transform="translate(0.000000,700.000000) scale(0.100000,-0.100000)"
fill="#000000" stroke="none">
<path d="M1609 5247 c-2 -3 -33 -7 -69 -11 -36 -3 -74 -8 -85 -10 -11 -3 -51
-11 -90 -20 -217 -46 -444 -148 -635 -284 -104 -74 -291 -253 -362 -347 -199
-263 -311 -538 -357 -875 -9 -69 -7 -384 3 -435 4 -16 13 -66 22 -110 88 -459
377 -878 788 -1140 169 -108 433 -208 636 -240 25 -4 54 -10 65 -12 11 -3 97
-6 190 -8 155 -2 290 8 387 31 18 4 38 9 43 10 145 29 371 122 520 214 228
140 435 347 575 575 129 209 217 462 247 705 10 82 10 357 0 430 -63 452 -281
844 -633 1138 -21 18 -82 61 -134 96 -230 153 -427 228 -740 282 -35 6 -365
15 -371 11z"/>
<path d="M3295 5238 c-171 -24 -342 -68 -443 -114 -29 -13 -57 -24 -63 -24
-21 0 -2 -19 96 -93 286 -216 501 -502 631 -837 30 -79 76 -238 89 -309 2 -14
7 -37 10 -51 22 -102 28 -415 10 -540 -20 -140 -23 -156 -51 -259 -81 -308
-252 -602 -499 -856 -38 -39 -170 -150 -225 -189 -30 -22 -59 -43 -64 -47 -30
-26 273 -122 479 -153 90 -14 408 -15 470 -2 17 4 68 13 114 22 111 20 294 82
406 137 193 95 333 194 480 342 84 85 225 253 225 270 0 2 16 30 37 62 113
177 208 447 239 683 10 74 10 372 0 440 -32 218 -85 390 -177 573 -35 70 -115
205 -129 217 -3 3 -24 30 -46 60 -263 351 -687 596 -1149 664 -101 15 -348 17
-440 4z"/>
<path d="M5099 5246 c-2 -2 -32 -7 -67 -10 -136 -14 -342 -67 -440 -113 l-32
-15 57 -40 c285 -199 528 -505 661 -830 37 -92 73 -200 86 -258 2 -8 9 -33 14
-55 28 -106 49 -317 46 -453 -5 -221 -42 -421 -113 -620 -125 -351 -355 -663
-653 -888 -82 -61 -95 -75 -80 -82 58 -31 284 -95 377 -107 28 -4 61 -9 75
-12 47 -9 345 -12 405 -3 33 4 76 11 95 13 195 28 445 121 635 237 150 92 315
235 432 375 50 60 163 220 163 231 0 3 15 31 33 62 89 152 171 415 195 621 13
124 6 439 -12 492 -3 7 -7 28 -10 44 -3 17 -8 41 -11 55 -3 14 -8 35 -11 46
-40 193 -186 483 -337 668 -72 89 -212 223 -306 294 -237 179 -488 282 -821
338 -33 6 -376 14 -381 10z"/>
</g>
</svg>
