<svg xmlns="http://www.w3.org/2000/svg" xmlns:xlink="http://www.w3.org/1999/xlink" viewBox="0 0 987 610">
  <style>
    @keyframes rot {
      to{transform:rotate(360deg);}
    }
    .rot {
      animation: rot 13s linear infinite;
      transform-origin: center;
    }
    .rot.rev {
      animation-direction: reverse;
    }
    .rot.fast {
      animation-duration: 8s;
    }
  </style>
  <defs>
    <filter id="blur">
      <feGaussianBlur stdDeviation="55"/>
    </filter>
    <g id="mask">
      <circle cx="421.5" cy="377" r="116.5"/>
      <rect x="421.5" y="349.5" width="144" height="144"/>
      <circle cx="565.5" cy="377" r="116.5"/>
      <rect x="538" y="233" width="144" height="144"/>
      <circle cx="565.5" cy="233" r="116.5"/>
      <rect x="421.5" y="116.5" width="144" height="144"/>
      <circle cx="421.5" cy="233" r="116.5"/>
      <rect x="305" y="233" width="144" height="144"/>
    </g>
  </defs>
  <g id="background" fill="#EEE">
    <rect width="610" height="610"/>
    <rect x="610" width="377" height="377"/>
    <rect x="754" y="377" width="233" height="233"/>
    <rect x="610" y="466" width="144" height="144"/>
    <rect x="610" y="377" width="89" height="89"/>
    <rect x="699" y="377" width="55" height="55"/>
    <rect x="720" y="432" width="34" height="34"/>
    <rect x="699" y="445" width="21" height="21"/>
    <rect x="699" y="432" width="13" height="13"/>
    <rect x="712" y="432" width="8" height="8"/>
    <rect x="715" y="440" width="5" height="5"/>
    <rect x="712" y="442" width="3" height="3"/>
    <rect x="712" y="440" width="2" height="2"/>
    <rect x="714" y="440" width="1" height="1"/>
    <rect x="714" y="441" width="1" height="1"/>
  </g>
  <g id="background-color_blur" filter="url(#blur)">
    <rect width="987" height="610" fill="#EEE"/>
    <g class="rot">
        <circle cx="392.61" cy="363.25" r="188.5" fill="#22F"/>
        <circle cx="594.39" cy="363.25" r="188.5" fill="#2F2"/>
        <circle cx="493.5" cy="188.5" r="188.5" fill="#F22"/>
    </g>
    <g class="rot rev">
      <circle cx="328.52" cy="209.75" r="114.5" fill="#F2F"/>
      <circle cx="493.5" cy="495.5" r="114.5" fill="#2FF"/>
      <circle cx="658.48" cy="209.75" r="114.5" fill="#FF2"/>
    </g>
    <g class="rot fast">
      <circle cx="377" cy="103.22" r="72" fill="#F29"/>
      <circle cx="260.5" cy="305" r="72" fill="#92F"/>
      <circle cx="377" cy="506.78" r="72" fill="#29F"/>
      <circle cx="610" cy="506.78" r="72" fill="#2F9"/>
      <circle cx="726.5" cy="305" r="72" fill="#9F2"/>
      <circle cx="610" cy="103.22" r="72" fill="#F92"/>
    </g>
    <use xlink:href="#mask" fill="#777"/>
  </g>
  <g id="type">
    <path d="M481.26,536.37h-3.38v7h-5.36v2.93h5.36v13.06c0,1.22,0,2.3.05,3.26a7,7,0,0,0,.74,2.81,5.2,5.2,0,0,0,2.44,2.46,9.14,9.14,0,0,0,3.67.88,16.4,16.4,0,0,0,4.16-.34v-3a14,14,0,0,1-4.51.14,3.52,3.52,0,0,1-2.66-1.85,4.17,4.17,0,0,1-.47-1.87c0-.7,0-1.58,0-2.63V546.26h7.68v-2.93h-7.68Z" fill="#111"/>
    <path d="M501.17,543.67a6.77,6.77,0,0,0-2.28,1.31,7.45,7.45,0,0,0-1.46,1.54c-.18.25-.33.52-.49.79v-4h-3.06v25.06h3.41V555.88a21.83,21.83,0,0,1,.21-3,10.16,10.16,0,0,1,.84-2.88,6.17,6.17,0,0,1,1.88-2.33,5.76,5.76,0,0,1,3-1.3,8.39,8.39,0,0,1,3,.16v-3.2a7.79,7.79,0,0,0-2.41-.19A9.61,9.61,0,0,0,501.17,543.67Z" fill="#111"/>
    <rect x="511.07" y="543.33" width="3.41" height="25.05" fill="#111"/>
    <rect x="511.07" y="534.75" width="3.41" height="3.83" fill="#111"/>
  </g>
  <use id="logo-mask" xlink:href="#mask" fill="#111"/>
  <g id="logo">
    <circle cx="601" cy="305" r="44.5" fill="#F0F"/>
    <circle cx="565.5" cy="305" r="72" fill="#22F"/>
    <circle cx="529" cy="304.99" r="44.5" fill="#0FF"/>
    <circle cx="493.5" cy="305" r="72" fill="#2F2"/>
    <circle cx="386" cy="305" r="44.5" fill="#EEE"/>
    <circle cx="457" cy="305" r="44.5" fill="#FF0"/>
    <circle cx="421.5" cy="305" r="72" fill="#F22"/>
  </g>
</svg>
