<svg xmlns="http://www.w3.org/2000/svg" viewBox="0 0 987 610">
  <rect id="bacground" width="987" height="610" fill="#eee"/>
  <g id="shape-solid">
    <path d="M833.33,384.93a72,72,0,0,0-93.75-30,77.68,77.68,0,0,1,25.56,26.64,49.43,49.43,0,0,1,0,76.78,77.68,77.68,0,0,1-25.59,26.7,72,72,0,0,0,93.75-30,44.48,44.48,0,0,0,0-70.14Z" fill="#111"/>
    <path d="M698.45,348a71.83,71.83,0,0,0-30.87,6.94,77.65,77.65,0,0,1,25.58,26.67,49.43,49.43,0,0,1,0,76.78,77.65,77.65,0,0,1-25.58,26.67A72,72,0,1,0,698.45,348Z" fill="#111"/>
    <path d="M626.45,348a72,72,0,0,0-62.88,36.93,44.48,44.48,0,0,0,0,70.14A72,72,0,1,0,626.45,348Z" fill="#111"/>
  </g>
  <g id="shape-color">
    <path d="M455.33,384.93a72,72,0,0,0-93.75-30,77.68,77.68,0,0,1,25.56,26.64,49.43,49.43,0,0,1,0,76.78,77.68,77.68,0,0,1-25.59,26.7,72,72,0,0,0,93.75-30,44.48,44.48,0,0,0,0-70.14Z" fill="#22f"/>
    <path d="M320.45,348a71.83,71.83,0,0,0-30.87,6.94,77.65,77.65,0,0,1,25.58,26.67,49.43,49.43,0,0,1,0,76.78,77.65,77.65,0,0,1-25.58,26.67A72,72,0,1,0,320.45,348Z" fill="#2f2"/>
    <path d="M248.45,348a72,72,0,0,0-62.88,36.93,44.48,44.48,0,0,0,0,70.14A72,72,0,1,0,248.45,348Z" fill="#f22"/>
  </g>
  <g id="min-solid">
    <path d="M770.45,118h0a71.73,71.73,0,0,0-30.88,7,76.91,76.91,0,0,1,0,130.1A71.73,71.73,0,0,0,770.45,262h0a72,72,0,0,0,72-72h0A72,72,0,0,0,770.45,118Z" fill="#111"/>
    <rect x="554.45" y="118" width="144" height="144" rx="72" ry="72" fill="#111"/>
    <path d="M698.45,118h0a71.73,71.73,0,0,0-30.88,7,76.91,76.91,0,0,1,0,130.1A71.73,71.73,0,0,0,698.45,262h0a72,72,0,0,0,72-72h0A72,72,0,0,0,698.45,118Z" fill="#111"/>
  </g>
  <g id="min-color">
    <path d="M392.45,118h0a71.73,71.73,0,0,0-30.88,7,76.91,76.91,0,0,1,0,130.1A71.73,71.73,0,0,0,392.45,262h0a72,72,0,0,0,72-72h0A72,72,0,0,0,392.45,118Z" fill="#22f"/>
    <rect x="176.45" y="118" width="144" height="144" rx="72" ry="72" fill="#f22"/>
    <path d="M320.45,118h0a71.73,71.73,0,0,0-30.88,7,76.91,76.91,0,0,1,0,130.1A71.73,71.73,0,0,0,320.45,262h0a72,72,0,0,0,72-72h0A72,72,0,0,0,320.45,118Z" fill="#2f2"/>
  </g>
</svg>
