<svg xmlns="http://www.w3.org/2000/svg" viewBox="0 0 304 144">
  <path d="M286.88,36.93a72,72,0,0,0-93.75-30,77.68,77.68,0,0,1,25.56,26.64,49.43,49.43,0,0,1,0,76.78,77.68,77.68,0,0,1-25.59,26.7,72,72,0,0,0,93.75-30,44.48,44.48,0,0,0,0-70.14Z" fill="#22F"/>
  <path d="M152,0a71.83,71.83,0,0,0-30.87,6.94A77.71,77.71,0,0,1,146.7,33.61a49.42,49.42,0,0,1,0,76.78,77.71,77.71,0,0,1-25.57,26.67A72,72,0,1,0,152,0Z" fill="#2F2"/>
  <path d="M80,0A72,72,0,0,0,17.12,36.93a44.48,44.48,0,0,0,0,70.14A72,72,0,1,0,80,0Z" fill="#F22"/>
</svg>
