<svg xmlns="http://www.w3.org/2000/svg" viewBox="0 0 1091 613">
  <rect width="1091" height="613" fill="#111"/>
  <circle cx="64" cy="32" r="16" fill="#22F"/>
  <circle cx="48" cy="32" r="16" fill="#2F2"/>
  <circle cx="32" cy="32" r="16" fill="#F22"/>
  <circle cx="742.2" cy="119.5" r="12" fill="#222"/>
  <circle cx="675" cy="186.7" r="12" fill="#222"/>
  <circle cx="675" cy="253.9" r="12" fill="#222"/>
  <circle cx="675" cy="321.1" r="12" fill="#222"/>
  <circle cx="675" cy="388.3" r="12" fill="#222"/>
  <circle cx="675" cy="455.5" r="12" fill="#222"/>
  <circle cx="742.2" cy="186.7" r="12" fill="#222"/>
  <circle cx="742.2" cy="253.9" r="12" fill="#222"/>
  <circle cx="742.2" cy="321.1" r="12" fill="#222"/>
  <circle cx="742.2" cy="388.3" r="12" fill="#222"/>
  <circle cx="742.2" cy="455.5" r="12" fill="#222"/>
  <circle cx="809.4" cy="119.5" r="12" fill="#222"/>
  <circle cx="809.4" cy="186.7" r="12" fill="#222"/>
  <circle cx="809.4" cy="253.9" r="12" fill="#222"/>
  <circle cx="809.4" cy="321.1" r="12" fill="#222"/>
  <circle cx="809.4" cy="388.3" r="12" fill="#222"/>
  <circle cx="809.4" cy="455.5" r="12" fill="#222"/>
  <circle cx="876.6" cy="119.5" r="12" fill="#222"/>
  <circle cx="876.6" cy="186.7" r="12" fill="#222"/>
  <circle cx="876.6" cy="253.9" r="12" fill="#222"/>
  <circle cx="876.6" cy="321.1" r="12" fill="#222"/>
  <circle cx="876.6" cy="388.3" r="12" fill="#222"/>
  <circle cx="876.6" cy="455.5" r="12" fill="#222"/>
  <circle cx="675" cy="119.5" r="24" fill="#444"/>
  <circle cx="468.7" cy="409.5" r="48" fill="#00F"/>
  <circle cx="412.7" cy="409.5" r="48" fill="#0F0"/>
  <circle cx="356.7" cy="409.5" r="48" fill="#F00"/>
  <circle cx="412.7" cy="241.5" r="96" fill="#FFF"/>
</svg>
