<svg xmlns="http://www.w3.org/2000/svg" viewBox="0 0 736 736">
  <path id="background" d="M0 0h736v736H0V0z" fill="#111"/>
  <g id="color-bluegray">
    <path fill="#001" d="M320 642h32v32h-32z"/>
    <path fill="#012" d="M288 642h32v32h-32z"/>
    <path fill="#123" d="M256 642h32v32h-32z"/>
    <path fill="#234" d="M224 642h32v32h-32z"/>
    <path fill="#345" d="M224 610h32v32h-32z"/>
    <path fill="#456" d="M256 610h32v32h-32z"/>
    <path fill="#567" d="M288 610h32v32h-32z"/>
    <path fill="#678" d="M320 610h32v32h-32z"/>
    <path fill="#789" d="M320 578h32v32h-32z"/>
    <path fill="#89A" d="M288 578h32v32h-32z"/>
    <path fill="#9AB" d="M256 578h32v32h-32z"/>
    <path fill="#ABC" d="M224 578h32v32h-32z"/>
    <path fill="#BCD" d="M224 546h32v32h-32z"/>
    <path fill="#CDE" d="M256 546h32v32h-32z"/>
    <path fill="#DEF" d="M288 546h32v32h-32z"/>
    <path fill="#EFF" d="M320 546h32v32h-32z"/>
  </g>
  <g id="color-gray">
    <path fill="#000" d="M160 640h32v32h-32z"/>
    <path fill="#111" d="M128 640h32v32h-32z"/>
    <path fill="#222" d="M96 640h32v32H96z"/>
    <path fill="#333" d="M64 640h32v32H64z"/>
    <path fill="#444" d="M64 608h32v32H64z"/>
    <path fill="#555" d="M96 608h32v32H96z"/>
    <path fill="#666" d="M128 608h32v32h-32z"/>
    <path fill="#777" d="M160 608h32v32h-32z"/>
    <path fill="#888" d="M160 576h32v32h-32z"/>
    <path fill="#999" d="M128 576h32v32h-32z"/>
    <path fill="#AAA" d="M96 576h32v32H96z"/>
    <path fill="#BBB" d="M64 576h32v32H64z"/>
    <path fill="#CCC" d="M64 544h32v32H64z"/>
    <path fill="#DDD" d="M96 544h32v32H96z"/>
    <path fill="#EEE" d="M128 544h32v32h-32z"/>
    <path fill="#FFF" d="M160 544h32v32h-32z"/>
  </g>
  <g id="color-pink">
    <path fill="#F29" d="M544 384h128v128H544V384z"/>
    <path fill="#D28" d="M640 480h32v32h-32v-32z"/>
    <path fill="#B27" d="M608 480h32v32h-32v-32z"/>
    <path fill="#926" d="M576 480h32v32h-32v-32z"/>
    <path fill="#725" d="M544 480h32v32h-32v-32z"/>
    <path fill="#F4A" d="M544 384h32v32h-32v-32z"/>
    <path fill="#F6B" d="M576 384h32v32h-32v-32z"/>
    <path fill="#F8C" d="M608 384h32v32h-32v-32z"/>
    <path fill="#FAD" d="M640 384h32v32h-32v-32z"/>
  </g>
  <g id="color-magenta">
    <path fill="#F2F" d="M384 384h128v128H384V384z"/>
    <path fill="#727" d="M384 480h32v32h-32v-32z"/>
    <path fill="#929" d="M416 480h32v32h-32v-32z"/>
    <path fill="#B2B" d="M448 480h32v32h-32v-32z"/>
    <path fill="#D2D" d="M480 480h32v32h-32v-32z"/>
    <path fill="#F4F" d="M384 384h32v32h-32v-32z"/>
    <path fill="#F6F" d="M416 384h32v32h-32v-32z"/>
    <path fill="#F8F" d="M448 384h32v32h-32v-32z"/>
    <path fill="#FAF" d="M480 384h32v32h-32v-32z"/>
  </g>
  <g id="color-purple">
    <path fill="#92F" d="M224 384h128v128H224V384z"/>
    <path fill="#527" d="M224 480h32v32h-32v-32z"/>
    <path fill="#629" d="M256 480h32v32h-32v-32z"/>
    <path fill="#72B" d="M288 480h32v32h-32v-32z"/>
    <path fill="#82D" d="M320 480h32v32h-32v-32z"/>
    <path fill="#A4F" d="M224 384h32v32h-32v-32z"/>
    <path fill="#B6F" d="M256 384h32v32h-32v-32z"/>
    <path fill="#C8F" d="M288 384h32v32h-32v-32z"/>
    <path fill="#DAF" d="M320 384h32v32h-32v-32z"/>
  </g>
  <g id="color-blue">
    <path fill="#22F" d="M64 384h128v128H64V384z"/>
    <path fill="#227" d="M64 480h32v32H64v-32z"/>
    <path fill="#229" d="M96 480h32v32H96v-32z"/>
    <path fill="#22B" d="M128 480h32v32h-32v-32z"/>
    <path fill="#22D" d="M160 480h32v32h-32v-32z"/>
    <path fill="#44F" d="M64 384h32v32H64v-32z"/>
    <path fill="#66F" d="M96 384h32v32H96v-32z"/>
    <path fill="#88F" d="M128 384h32v32h-32v-32z"/>
    <path fill="#AAF" d="M160 384h32v32h-32v-32z"/>
  </g>
  <g id="color-sky">
    <path fill="#29F" d="M544 224h128v128H544V224z"/>
    <path fill="#257" d="M544 320h32v32h-32v-32z"/>
    <path fill="#269" d="M576 320h32v32h-32v-32z"/>
    <path fill="#27B" d="M608 320h32v32h-32v-32z"/>
    <path fill="#28D" d="M640 320h32v32h-32v-32z"/>
    <path fill="#4AF" d="M544 224h32v32h-32v-32z"/>
    <path fill="#6BF" d="M576 224h32v32h-32v-32z"/>
    <path fill="#8CF" d="M608 224h32v32h-32v-32z"/>
    <path fill="#ADF" d="M640 224h32v32h-32v-32z"/>
  </g>
  <g id="color-cyan">
    <path fill="#2FF" d="M384 224h128v128H384V224z"/>
    <path fill="#277" d="M384 320h32v32h-32v-32z"/>
    <path fill="#299" d="M416 320h32v32h-32v-32z"/>
    <path fill="#2BB" d="M448 320h32v32h-32v-32z"/>
    <path fill="#2DD" d="M480 320h32v32h-32v-32z"/>
    <path fill="#4FF" d="M384 224h32v32h-32v-32z"/>
    <path fill="#6FF" d="M416 224h32v32h-32v-32z"/>
    <path fill="#8FF" d="M448 224h32v32h-32v-32z"/>
    <path fill="#AFF" d="M480 224h32v32h-32v-32z"/>
  </g>
  <g id="color-teal">
    <path fill="#2F9" d="M224 224h128v128H224V224z"/>
    <path fill="#275" d="M224 320h32v32h-32v-32z"/>
    <path fill="#296" d="M256 320h32v32h-32v-32z"/>
    <path fill="#2B7" d="M288 320h32v32h-32v-32z"/>
    <path fill="#2D8" d="M320 320h32v32h-32v-32z"/>
    <path fill="#4FA" d="M224 224h32v32h-32v-32z"/>
    <path fill="#6FB" d="M256 224h32v32h-32v-32z"/>
    <path fill="#8FC" d="M288 224h32v32h-32v-32z"/>
    <path fill="#AFD" d="M320 224h32v32h-32v-32z"/>
  </g>
  <g id="color-green">
    <path fill="#2F2" d="M64 224h128v128H64V224z"/>
    <path fill="#272" d="M64 320h32v32H64v-32z"/>
    <path fill="#292" d="M96 320h32v32H96v-32z"/>
    <path fill="#2B2" d="M128 320h32v32h-32v-32z"/>
    <path fill="#2D2" d="M160 320h32v32h-32v-32z"/>
    <path fill="#4F4" d="M64 224h32v32H64v-32z"/>
    <path fill="#6F6" d="M96 224h32v32H96v-32z"/>
    <path fill="#8F8" d="M128 224h32v32h-32v-32z"/>
    <path fill="#AFA" d="M160 224h32v32h-32v-32z"/>
  </g>
  <g id="color-lime">
    <path fill="#9F2" d="M544 64h128v128H544V64z"/>
    <path fill="#572" d="M544 160h32v32h-32v-32z"/>
    <path fill="#692" d="M576 160h32v32h-32v-32z"/>
    <path fill="#7B2" d="M608 160h32v32h-32v-32z"/>
    <path fill="#8D2" d="M640 160h32v32h-32v-32z"/>
    <path fill="#AF4" d="M544 64h32v32h-32V64z"/>
    <path fill="#BF6" d="M576 64h32v32h-32V64z"/>
    <path fill="#CF8" d="M608 64h32v32h-32V64z"/>
    <path fill="#DFA" d="M640 64h32v32h-32V64z"/>
  </g>
  <g id="color-yellow">
    <path fill="#FF2" d="M384 64h128v128H384V64z"/>
    <path fill="#772" d="M384 160h32v32h-32v-32z"/>
    <path fill="#992" d="M416 160h32v32h-32v-32z"/>
    <path fill="#BB2" d="M448 160h32v32h-32v-32z"/>
    <path fill="#DD2" d="M480 160h32v32h-32v-32z"/>
    <path fill="#FF4" d="M384 64h32v32h-32V64z"/>
    <path fill="#FF6" d="M416 64h32v32h-32V64z"/>
    <path fill="#FF8" d="M448 64h32v32h-32V64z"/>
    <path fill="#FFA" d="M480 64h32v32h-32V64z"/>
  </g>
  <g id="color-orange">
    <path fill="#F92" d="M224 64h128v128H224V64z"/>
    <path fill="#752" d="M224 160h32v32h-32v-32z"/>
    <path fill="#962" d="M256 160h32v32h-32v-32z"/>
    <path fill="#B72" d="M288 160h32v32h-32v-32z"/>
    <path fill="#D82" d="M320 160h32v32h-32v-32z"/>
    <path fill="#FA4" d="M224 64h32v32h-32V64z"/>
    <path fill="#FB6" d="M256 64h32v32h-32V64z"/>
    <path fill="#FC8" d="M288 64h32v32h-32V64z"/>
    <path fill="#FDA" d="M320 64h32v32h-32V64z"/>
  </g>
  <g id="color-red">
    <path fill="#F22" d="M64 64h128v128H64V64z"/>
    <path fill="#722" d="M64 160h32v32H64v-32z"/>
    <path fill="#922" d="M96 160h32v32H96v-32z"/>
    <path fill="#B22" d="M128 160h32v32h-32v-32z"/>
    <path fill="#D22" d="M160 160h32v32h-32v-32z"/>
    <path fill="#F44" d="M64 64h32v32H64V64z"/>
    <path fill="#F66" d="M96 64h32v32H96V64z"/>
    <path fill="#F88" d="M128 64h32v32h-32V64z"/>
    <path fill="#FAA" d="M160 64h32v32h-32V64z"/>
  </g>
</svg>
