<svg xmlns="http://www.w3.org/2000/svg" viewBox="0 0 736 736">
  <path id="background" d="M0 0h736v736H0V0z" fill="#111"/>
  <g id="color-warm_gray">
    <path fill="#100" d="M480 642h32v32h-32v-32z"/>
    <path fill="#211" d="M448 642h32v32h-32v-32z"/>
    <path fill="#322" d="M416 642h32v32h-32v-32z"/>
    <path fill="#433" d="M384 642h32v32h-32v-32z"/>
    <path fill="#544" d="M384 610h32v32h-32v-32z"/>
    <path fill="#655" d="M416 610h32v32h-32v-32z"/>
    <path fill="#766" d="M448 610h32v32h-32v-32z"/>
    <path fill="#877" d="M480 610h32v32h-32v-32z"/>
    <path fill="#988" d="M480 578h32v32h-32v-32z"/>
    <path fill="#a99" d="M448 578h32v32h-32v-32z"/>
    <path fill="#baa" d="M416 578h32v32h-32v-32z"/>
    <path fill="#cbb" d="M384 578h32v32h-32v-32z"/>
    <path fill="#dcc" d="M384 546h32v32h-32v-32z"/>
    <path fill="#edd" d="M416 546h32v32h-32v-32z"/>
    <path fill="#fee" d="M448 546h32v32h-32v-32z"/>
    <path fill="#ffe" d="M480 546h32v32h-32v-32z"/>
  </g>
  <g id="color-bluegray">
    <path fill="#001" d="M320 642h32v32h-32v-32z"/>
    <path fill="#012" d="M288 642h32v32h-32v-32z"/>
    <path fill="#123" d="M256 642h32v32h-32v-32z"/>
    <path fill="#234" d="M224 642h32v32h-32v-32z"/>
    <path fill="#345" d="M224 610h32v32h-32v-32z"/>
    <path fill="#456" d="M256 610h32v32h-32v-32z"/>
    <path fill="#567" d="M288 610h32v32h-32v-32z"/>
    <path fill="#678" d="M320 610h32v32h-32v-32z"/>
    <path fill="#789" d="M320 578h32v32h-32v-32z"/>
    <path fill="#89a" d="M288 578h32v32h-32v-32z"/>
    <path fill="#9ab" d="M256 578h32v32h-32v-32z"/>
    <path fill="#abc" d="M224 578h32v32h-32v-32z"/>
    <path fill="#bcd" d="M224 546h32v32h-32v-32z"/>
    <path fill="#cde" d="M256 546h32v32h-32v-32z"/>
    <path fill="#def" d="M288 546h32v32h-32v-32z"/>
    <path fill="#eff" d="M320 546h32v32h-32v-32z"/>
  </g>
  <g id="color-gray">
    <path d="M160 640h32v32h-32v-32z"/>
    <path d="M128 640h32v32h-32v-32z" class="st0"/>
    <path fill="#222" d="M96 640h32v32H96v-32z"/>
    <path fill="#333" d="M64 640h32v32H64v-32z"/>
    <path fill="#444" d="M64 608h32v32H64v-32z"/>
    <path fill="#555" d="M96 608h32v32H96v-32z"/>
    <path fill="#666" d="M128 608h32v32h-32v-32z"/>
    <path fill="#777" d="M160 608h32v32h-32v-32z"/>
    <path fill="#888" d="M160 576h32v32h-32v-32z"/>
    <path fill="#999" d="M128 576h32v32h-32v-32z"/>
    <path fill="#aaa" d="M96 576h32v32H96v-32z"/>
    <path fill="#bbb" d="M64 576h32v32H64v-32z"/>
    <path fill="#ccc" d="M64 544h32v32H64v-32z"/>
    <path fill="#ddd" d="M96 544h32v32H96v-32z"/>
    <path fill="#eee" d="M128 544h32v32h-32v-32z"/>
    <path fill="#fff" d="M160 544h32v32h-32v-32z"/>
  </g>
  <g id="color-pink">
    <path fill="#f29" d="M544 384h128v128H544V384z"/>
    <path fill="#725" d="M544 480h32v32h-32v-32z"/>
    <path fill="#926" d="M576 480h32v32h-32v-32z"/>
    <path fill="#b27" d="M608 480h32v32h-32v-32z"/>
    <path fill="#d28" d="M640 480h32v32h-32v-32z"/>
    <path fill="#f4a" d="M544 384h32v32h-32v-32z"/>
    <path fill="#f6b" d="M576 384h32v32h-32v-32z"/>
    <path fill="#f8c" d="M608 384h32v32h-32v-32z"/>
    <path fill="#fad" d="M640 384h32v32h-32v-32z"/>
  </g>
  <g id="color-magenta_1_">
    <path fill="#f2f" d="M384 384h128v128H384V384z"/>
    <path fill="#727" d="M384 480h32v32h-32v-32z"/>
    <path fill="#929" d="M416 480h32v32h-32v-32z"/>
    <path fill="#b2b" d="M448 480h32v32h-32v-32z"/>
    <path fill="#d2d" d="M480 480h32v32h-32v-32z"/>
    <path fill="#f4f" d="M384 384h32v32h-32v-32z"/>
    <path fill="#f6f" d="M416 384h32v32h-32v-32z"/>
    <path fill="#f8f" d="M448 384h32v32h-32v-32z"/>
    <path fill="#faf" d="M480 384h32v32h-32v-32z"/>
  </g>
  <g id="color-purple">
    <path fill="#92f" d="M224 384h128v128H224V384z"/>
    <path fill="#527" d="M224 480h32v32h-32v-32z"/>
    <path fill="#629" d="M256 480h32v32h-32v-32z"/>
    <path fill="#72b" d="M288 480h32v32h-32v-32z"/>
    <path fill="#82d" d="M320 480h32v32h-32v-32z"/>
    <path fill="#a4f" d="M224 384h32v32h-32v-32z"/>
    <path fill="#b6f" d="M256 384h32v32h-32v-32z"/>
    <path fill="#c8f" d="M288 384h32v32h-32v-32z"/>
    <path fill="#daf" d="M320 384h32v32h-32v-32z"/>
  </g>
  <g id="color-blue">
    <path fill="#22f" d="M64 384h128v128H64V384z"/>
    <path fill="#227" d="M64 480h32v32H64v-32z"/>
    <path fill="#229" d="M96 480h32v32H96v-32z"/>
    <path fill="#22b" d="M128 480h32v32h-32v-32z"/>
    <path fill="#22d" d="M160 480h32v32h-32v-32z"/>
    <path fill="#44f" d="M64 384h32v32H64v-32z"/>
    <path fill="#66f" d="M96 384h32v32H96v-32z"/>
    <path fill="#88f" d="M128 384h32v32h-32v-32z"/>
    <path fill="#aaf" d="M160 384h32v32h-32v-32z"/>
  </g>
  <g id="color-sky">
    <path fill="#29f" d="M544 224h128v128H544V224z"/>
    <path fill="#257" d="M544 320h32v32h-32v-32z"/>
    <path fill="#269" d="M576 320h32v32h-32v-32z"/>
    <path fill="#27b" d="M608 320h32v32h-32v-32z"/>
    <path fill="#28d" d="M640 320h32v32h-32v-32z"/>
    <path fill="#4af" d="M544 224h32v32h-32v-32z"/>
    <path fill="#6bf" d="M576 224h32v32h-32v-32z"/>
    <path fill="#8cf" d="M608 224h32v32h-32v-32z"/>
    <path fill="#adf" d="M640 224h32v32h-32v-32z"/>
  </g>
  <g id="color-cyan">
    <path fill="#2ff" d="M384 224h128v128H384V224z"/>
    <path fill="#277" d="M384 320h32v32h-32v-32z"/>
    <path fill="#299" d="M416 320h32v32h-32v-32z"/>
    <path fill="#2bb" d="M448 320h32v32h-32v-32z"/>
    <path fill="#2dd" d="M480 320h32v32h-32v-32z"/>
    <path fill="#4ff" d="M384 224h32v32h-32v-32z"/>
    <path fill="#6ff" d="M416 224h32v32h-32v-32z"/>
    <path fill="#8ff" d="M448 224h32v32h-32v-32z"/>
    <path fill="#aff" d="M480 224h32v32h-32v-32z"/>
  </g>
  <g id="color-teal">
    <path fill="#2f9" d="M224 224h128v128H224V224z"/>
    <path fill="#275" d="M224 320h32v32h-32v-32z"/>
    <path fill="#296" d="M256 320h32v32h-32v-32z"/>
    <path fill="#2b7" d="M288 320h32v32h-32v-32z"/>
    <path fill="#2d8" d="M320 320h32v32h-32v-32z"/>
    <path fill="#4fa" d="M224 224h32v32h-32v-32z"/>
    <path fill="#6fb" d="M256 224h32v32h-32v-32z"/>
    <path fill="#8fc" d="M288 224h32v32h-32v-32z"/>
    <path fill="#afd" d="M320 224h32v32h-32v-32z"/>
  </g>
  <g id="color-green">
    <path fill="#2f2" d="M64 224h128v128H64V224z"/>
    <path fill="#272" d="M64 320h32v32H64v-32z"/>
    <path fill="#292" d="M96 320h32v32H96v-32z"/>
    <path fill="#2b2" d="M128 320h32v32h-32v-32z"/>
    <path fill="#2d2" d="M160 320h32v32h-32v-32z"/>
    <path fill="#4f4" d="M64 224h32v32H64v-32z"/>
    <path fill="#6f6" d="M96 224h32v32H96v-32z"/>
    <path fill="#8f8" d="M128 224h32v32h-32v-32z"/>
    <path fill="#afa" d="M160 224h32v32h-32v-32z"/>
  </g>
  <g id="color-lime">
    <path fill="#9f2" d="M544 64h128v128H544V64z"/>
    <path fill="#572" d="M544 160h32v32h-32v-32z"/>
    <path fill="#692" d="M576 160h32v32h-32v-32z"/>
    <path fill="#7b2" d="M608 160h32v32h-32v-32z"/>
    <path fill="#8d2" d="M640 160h32v32h-32v-32z"/>
    <path fill="#af4" d="M544 64h32v32h-32V64z"/>
    <path fill="#bf6" d="M576 64h32v32h-32V64z"/>
    <path fill="#cf8" d="M608 64h32v32h-32V64z"/>
    <path fill="#dfa" d="M640 64h32v32h-32V64z"/>
  </g>
  <g id="color-yellow">
    <path fill="#ff2" d="M384 64h128v128H384V64z"/>
    <path fill="#772" d="M384 160h32v32h-32v-32z"/>
    <path fill="#992" d="M416 160h32v32h-32v-32z"/>
    <path fill="#bb2" d="M448 160h32v32h-32v-32z"/>
    <path fill="#dd2" d="M480 160h32v32h-32v-32z"/>
    <path fill="#ff4" d="M384 64h32v32h-32V64z"/>
    <path fill="#ff6" d="M416 64h32v32h-32V64z"/>
    <path fill="#ff8" d="M448 64h32v32h-32V64z"/>
    <path fill="#ffa" d="M480 64h32v32h-32V64z"/>
  </g>
  <g id="color-orange">
    <path fill="#f92" d="M224 64h128v128H224V64z"/>
    <path fill="#752" d="M224 160h32v32h-32v-32z"/>
    <path fill="#962" d="M256 160h32v32h-32v-32z"/>
    <path fill="#b72" d="M288 160h32v32h-32v-32z"/>
    <path fill="#d82" d="M320 160h32v32h-32v-32z"/>
    <path fill="#fa4" d="M224 64h32v32h-32V64z"/>
    <path fill="#fb6" d="M256 64h32v32h-32V64z"/>
    <path fill="#fc8" d="M288 64h32v32h-32V64z"/>
    <path fill="#fda" d="M320 64h32v32h-32V64z"/>
  </g>
  <g id="color-red">
    <path fill="#f22" d="M64 64h128v128H64V64z"/>
    <path fill="#722" d="M64 160h32v32H64v-32z"/>
    <path fill="#922" d="M96 160h32v32H96v-32z"/>
    <path fill="#b22" d="M128 160h32v32h-32v-32z"/>
    <path fill="#d22" d="M160 160h32v32h-32v-32z"/>
    <path fill="#f44" d="M64 64h32v32H64V64z"/>
    <path fill="#f66" d="M96 64h32v32H96V64z"/>
    <path fill="#f88" d="M128 64h32v32h-32V64z"/>
    <path fill="#faa" d="M160 64h32v32h-32V64z"/>
  </g>
</svg>
