<svg version="1" xmlns="http://www.w3.org/2000/svg" width="933.333" height="933.333" viewBox="0 0 700.000000 700.000000"><path d="M160.9 175.3c-.2.3-3.3.7-6.9 1.1-3.6.3-7.4.8-8.5 1-1.1.3-5.1 1.1-9 2-21.7 4.6-44.4 14.8-63.5 28.4-10.4 7.4-29.1 25.3-36.2 34.7C16.9 268.8 5.7 296.3 1.1 330c-.9 6.9-.7 38.4.3 43.5.4 1.6 1.3 6.6 2.2 11 8.8 45.9 37.7 87.8 78.8 114 16.9 10.8 43.3 20.8 63.6 24 2.5.4 5.4 1 6.5 1.2 1.1.3 9.7.6 19 .8 15.5.2 29-.8 38.7-3.1 1.8-.4 3.8-.9 4.3-1 14.5-2.9 37.1-12.2 52-21.4 22.8-14 43.5-34.7 57.5-57.5 12.9-20.9 21.7-46.2 24.7-70.5 1-8.2 1-35.7 0-43-6.3-45.2-28.1-84.4-63.3-113.8-2.1-1.8-8.2-6.1-13.4-9.6-23-15.3-42.7-22.8-74-28.2-3.5-.6-36.5-1.5-37.1-1.1z"/><path d="M329.5 176.2c-17.1 2.4-34.2 6.8-44.3 11.4-2.9 1.3-5.7 2.4-6.3 2.4-2.1 0-.2 1.9 9.6 9.3 28.6 21.6 50.1 50.2 63.1 83.7 3 7.9 7.6 23.8 8.9 30.9.2 1.4.7 3.7 1 5.1 2.2 10.2 2.8 41.5 1 54-2 14-2.3 15.6-5.1 25.9-8.1 30.8-25.2 60.2-49.9 85.6-3.8 3.9-17 15-22.5 18.9-3 2.2-5.9 4.3-6.4 4.7-3 2.6 27.3 12.2 47.9 15.3 9 1.4 40.8 1.5 47 .2 1.7-.4 6.8-1.3 11.4-2.2 11.1-2 29.4-8.2 40.6-13.7 19.3-9.5 33.3-19.4 48-34.2 8.4-8.5 22.5-25.3 22.5-27 0-.2 1.6-3 3.7-6.2 11.3-17.7 20.8-44.7 23.9-68.3 1-7.4 1-37.2 0-44-3.2-21.8-8.5-39-17.7-57.3-3.5-7-11.5-20.5-12.9-21.7-.3-.3-2.4-3-4.6-6-26.3-35.1-68.7-59.6-114.9-66.4-10.1-1.5-34.8-1.7-44-.4z"/><path d="M509.9 175.4c-.2.2-3.2.7-6.7 1-13.6 1.4-34.2 6.7-44 11.3l-3.2 1.5 5.7 4c28.5 19.9 52.8 50.5 66.1 83 3.7 9.2 7.3 20 8.6 25.8.2.8.9 3.3 1.4 5.5 2.8 10.6 4.9 31.7 4.6 45.3-.5 22.1-4.2 42.1-11.3 62-12.5 35.1-35.5 66.3-65.3 88.8-8.2 6.1-9.5 7.5-8 8.2 5.8 3.1 28.4 9.5 37.7 10.7 2.8.4 6.1.9 7.5 1.2 4.7.9 34.5 1.2 40.5.3 3.3-.4 7.6-1.1 9.5-1.3 19.5-2.8 44.5-12.1 63.5-23.7 15-9.2 31.5-23.5 43.2-37.5 5-6 16.3-22 16.3-23.1 0-.3 1.5-3.1 3.3-6.2 8.9-15.2 17.1-41.5 19.5-62.1 1.3-12.4.6-43.9-1.2-49.2-.3-.7-.7-2.8-1-4.4-.3-1.7-.8-4.1-1.1-5.5-.3-1.4-.8-3.5-1.1-4.6-4-19.3-18.6-48.3-33.7-66.8-7.2-8.9-21.2-22.3-30.6-29.4-23.7-17.9-48.8-28.2-82.1-33.8-3.3-.6-37.6-1.4-38.1-1z"/></svg>